# File created by Blade
# Date/Time:  Thu Jan 22 19:01:15 2015
# Frame Rate: 120.000 fps
#------------------------------------------------------
:FULLY-SPECIFIED
:DEGREES
1578
root -2.851195 33.215928 0.040930 6.247862 0.728184 2.912586
RightUpLeg 0.645284 -6.903147 -2.229491
RightLeg 1.661564 -0.000000 -0.000000
RightFoot -12.597908 -5.204840 3.286026
RightToeBase 5.416899 -0.000000 -0.000000
LeftUpLeg 0.953629 3.018391 1.155294
LeftLeg 0.249878 -0.000000 -0.000000
LeftFoot -9.157139 -0.167264 -9.716740
LeftToeBase 7.862244 -0.000000 -0.000000
Spine -12.882253 -9.022284 -2.829908
RightShoulder -25.210154 18.888333 -54.416791
RightArm 104.471291 52.565172 91.597616
RightForeArm 29.656474 -0.000000 151.037156
RightHand 23.117648 0.000000 -6.414120
RightHandThumb1 -24.326973 -0.000000 -32.862282
LeftShoulder -16.031142 20.749171 11.908023
LeftArm -147.030047 75.400214 -243.098852
LeftForeArm 53.074760 -0.000000 102.958897
LeftHand 19.759818 -0.000000 18.331792
LeftHandThumb1 -26.253704 0.000000 33.147579
Head 16.583121 6.011222 7.982624
1579
root -2.848028 33.217192 0.040089 6.327511 0.586989 2.921402
RightUpLeg 0.532171 -6.857761 -2.244327
RightLeg 1.668899 -0.000000 -0.000000
RightFoot -12.580898 -5.143126 3.248380
RightToeBase 5.402028 -0.000000 -0.000000
LeftUpLeg 0.979230 3.148582 1.135370
LeftLeg 0.078981 -0.000000 -0.000000
LeftFoot -9.072230 -0.217187 -9.783091
LeftToeBase 7.949628 -0.000000 -0.000000
Spine -12.927474 -8.898959 -2.718576
RightShoulder -25.286524 18.573886 -54.480582
RightArm 105.001354 52.523157 91.875100
RightForeArm 29.442331 -0.000000 151.012597
RightHand 23.131348 0.000000 -6.330655
RightHandThumb1 -24.326973 -0.000000 -32.862282
LeftShoulder -15.946555 20.656530 11.672034
LeftArm -146.162765 74.931170 -242.494662
LeftForeArm 52.519007 -0.000000 100.888707
LeftHand 20.164286 -0.000000 24.200742
LeftHandThumb1 -26.253704 0.000000 33.147579
Head 16.200297 6.190188 7.559271
1580
root -2.848215 33.216277 0.043601 6.393295 0.400585 2.919648
RightUpLeg 0.425142 -6.801995 -2.250048
RightLeg 1.695401 -0.000000 -0.000000
RightFoot -12.589412 -5.042136 3.213345
RightToeBase 5.426875 -0.000000 -0.000000
LeftUpLeg 1.023930 3.286370 1.121096
LeftLeg -0.067892 -0.000000 0.000000
LeftFoot -9.022947 -0.207889 -9.818389
LeftToeBase 7.922324 -0.000000 -0.000000
Spine -12.943659 -8.935044 -2.651548
RightShoulder -25.243508 18.807426 -54.618891
RightArm 104.950355 52.639891 91.859455
RightForeArm 29.397448 -0.000000 151.028133
RightHand 23.170154 -0.000000 -6.133864
RightHandThumb1 -24.326973 -0.000000 -32.862282
LeftShoulder -16.260808 20.777837 11.424986
LeftArm -145.321771 74.737331 -241.826534
LeftForeArm 51.773521 -0.000000 99.015451
LeftHand 20.623411 0.000000 26.992202
LeftHandThumb1 -26.253704 0.000000 33.147579
Head 15.759250 6.528377 7.380281
1581
root -2.846699 33.216024 0.038291 6.510732 0.168457 2.927355
RightUpLeg 0.217875 -6.745317 -2.261561
RightLeg 1.768723 -0.000000 -0.000000
RightFoot -12.605835 -4.922671 3.138655
RightToeBase 5.432350 -0.000000 -0.000000
LeftUpLeg 0.986410 3.424449 1.087034
LeftLeg -0.170972 -0.000000 0.000000
LeftFoot -8.986953 -0.164500 -9.874899
LeftToeBase 7.889359 -0.000000 -0.000000
Spine -12.963143 -8.837434 -2.610265
RightShoulder -25.206451 18.790015 -54.628690
RightArm 105.502395 52.810858 92.268637
RightForeArm 29.420708 -0.000000 150.998146
RightHand 23.185652 0.000000 -6.071788
RightHandThumb1 -24.326973 -0.000000 -32.862282
LeftShoulder -16.573557 20.911752 11.153257
LeftArm -144.758021 74.410520 -241.405717
LeftForeArm 50.998451 -0.000000 97.229490
LeftHand 20.519295 -0.000000 29.781027
LeftHandThumb1 -26.253704 0.000000 33.147579
Head 15.186864 6.793166 7.169499
1582
root -2.843145 33.216989 0.032555 6.629497 -0.130306 2.938839
RightUpLeg 0.010676 -6.581465 -2.293212
RightLeg 1.816143 -0.000000 -0.000000
RightFoot -12.601269 -4.819764 3.112655
RightToeBase 5.408378 -0.000000 -0.000000
LeftUpLeg 0.946011 3.610542 1.034902
LeftLeg -0.251036 -0.000000 0.000000
LeftFoot -8.968239 -0.094885 -9.929497
LeftToeBase 7.889686 -0.000000 -0.000000
Spine -13.033891 -8.650033 -2.593720
RightShoulder -25.146830 19.058294 -54.764315
RightArm 105.452989 52.967127 92.220371
RightForeArm 29.427866 -0.000000 150.981133
RightHand 23.252194 -0.000000 -6.095580
RightHandThumb1 -24.326973 -0.000000 -32.862282
LeftShoulder -16.825691 21.075304 10.935076
LeftArm -143.513609 74.298480 -240.251534
LeftForeArm 50.360471 -0.000000 95.852270
LeftHand 20.231744 -0.000000 31.064127
LeftHandThumb1 -26.253704 0.000000 33.147579
Head 14.736659 6.989329 6.977577
1583
root -2.839442 33.217245 0.028925 6.750061 -0.483665 2.939760
RightUpLeg -0.194232 -6.396892 -2.319255
RightLeg 1.836723 -0.000000 -0.000000
RightFoot -12.569594 -4.695385 3.056893
RightToeBase 5.383691 -0.000000 -0.000000
LeftUpLeg 0.907855 3.836913 0.986599
LeftLeg -0.318966 -0.000000 0.000000
LeftFoot -8.961007 -0.010458 -9.968779
LeftToeBase 7.875668 -0.000000 -0.000000
Spine -13.126191 -8.292571 -2.568812
RightShoulder -25.113617 19.139408 -54.880507
RightArm 105.567103 53.050875 92.253706
RightForeArm 29.226572 -0.000000 150.945714
RightHand 23.299065 -0.000000 -6.202786
RightHandThumb1 -24.326973 -0.000000 -32.862282
LeftShoulder -17.001519 21.243013 10.730526
LeftArm -141.746232 74.454882 -238.363523
LeftForeArm 50.175931 -0.000000 95.113653
LeftHand 19.477828 -0.000000 31.618260
LeftHandThumb1 -26.253704 0.000000 33.147579
Head 14.307063 7.095291 6.702123
